<?xml version="1.0" encoding="utf-8" standalone="no"?>
<!DOCTYPE svg PUBLIC "-//W3C//DTD SVG 1.1//EN"
  "http://www.w3.org/Graphics/SVG/1.1/DTD/svg11.dtd">
<!-- Created with matplotlib (https://matplotlib.org/) -->
<svg height="345.6pt" version="1.1" viewBox="0 0 460.8 345.6" width="460.8pt" xmlns="http://www.w3.org/2000/svg" xmlns:xlink="http://www.w3.org/1999/xlink">
 <defs>
  <style type="text/css">
*{stroke-linecap:butt;stroke-linejoin:round;}
  </style>
 </defs>
 <g id="figure_1">
  <g id="patch_1">
   <path d="M 0 345.6 
L 460.8 345.6 
L 460.8 0 
L 0 0 
z
" style="fill:none;"/>
  </g>
  <g id="axes_1">
   <g id="patch_2">
    <path d="M 57.6 307.584 
L 414.72 307.584 
L 414.72 41.472 
L 57.6 41.472 
z
" style="fill:none;"/>
   </g>
   <g id="matplotlib.axis_1">
    <g id="xtick_1">
     <g id="line2d_1">
      <defs>
       <path d="M 0 0 
L 0 3.5 
" id="m0e3109cda4" style="stroke:#000000;stroke-width:0.8;"/>
      </defs>
      <g>
       <use style="stroke:#000000;stroke-width:0.8;" x="57.743674" xlink:href="#m0e3109cda4" y="307.584"/>
      </g>
     </g>
     <g id="text_1">
      <!-- 0.1 -->
      <defs>
       <path d="M 31.78125 66.40625 
Q 24.171875 66.40625 20.328125 58.90625 
Q 16.5 51.421875 16.5 36.375 
Q 16.5 21.390625 20.328125 13.890625 
Q 24.171875 6.390625 31.78125 6.390625 
Q 39.453125 6.390625 43.28125 13.890625 
Q 47.125 21.390625 47.125 36.375 
Q 47.125 51.421875 43.28125 58.90625 
Q 39.453125 66.40625 31.78125 66.40625 
z
M 31.78125 74.21875 
Q 44.046875 74.21875 50.515625 64.515625 
Q 56.984375 54.828125 56.984375 36.375 
Q 56.984375 17.96875 50.515625 8.265625 
Q 44.046875 -1.421875 31.78125 -1.421875 
Q 19.53125 -1.421875 13.0625 8.265625 
Q 6.59375 17.96875 6.59375 36.375 
Q 6.59375 54.828125 13.0625 64.515625 
Q 19.53125 74.21875 31.78125 74.21875 
z
" id="DejaVuSans-48"/>
       <path d="M 10.6875 12.40625 
L 21 12.40625 
L 21 0 
L 10.6875 0 
z
" id="DejaVuSans-46"/>
       <path d="M 12.40625 8.296875 
L 28.515625 8.296875 
L 28.515625 63.921875 
L 10.984375 60.40625 
L 10.984375 69.390625 
L 28.421875 72.90625 
L 38.28125 72.90625 
L 38.28125 8.296875 
L 54.390625 8.296875 
L 54.390625 0 
L 12.40625 0 
z
" id="DejaVuSans-49"/>
      </defs>
      <g transform="translate(49.792112 322.182437)scale(0.1 -0.1)">
       <use xlink:href="#DejaVuSans-48"/>
       <use x="63.623047" xlink:href="#DejaVuSans-46"/>
       <use x="95.410156" xlink:href="#DejaVuSans-49"/>
      </g>
     </g>
    </g>
    <g id="xtick_2">
     <g id="line2d_2">
      <g>
       <use style="stroke:#000000;stroke-width:0.8;" x="122.652725" xlink:href="#m0e3109cda4" y="307.584"/>
      </g>
     </g>
     <g id="text_2">
      <!-- 0.2 -->
      <defs>
       <path d="M 19.1875 8.296875 
L 53.609375 8.296875 
L 53.609375 0 
L 7.328125 0 
L 7.328125 8.296875 
Q 12.9375 14.109375 22.625 23.890625 
Q 32.328125 33.6875 34.8125 36.53125 
Q 39.546875 41.84375 41.421875 45.53125 
Q 43.3125 49.21875 43.3125 52.78125 
Q 43.3125 58.59375 39.234375 62.25 
Q 35.15625 65.921875 28.609375 65.921875 
Q 23.96875 65.921875 18.8125 64.3125 
Q 13.671875 62.703125 7.8125 59.421875 
L 7.8125 69.390625 
Q 13.765625 71.78125 18.9375 73 
Q 24.125 74.21875 28.421875 74.21875 
Q 39.75 74.21875 46.484375 68.546875 
Q 53.21875 62.890625 53.21875 53.421875 
Q 53.21875 48.921875 51.53125 44.890625 
Q 49.859375 40.875 45.40625 35.40625 
Q 44.1875 33.984375 37.640625 27.21875 
Q 31.109375 20.453125 19.1875 8.296875 
z
" id="DejaVuSans-50"/>
      </defs>
      <g transform="translate(114.701162 322.182437)scale(0.1 -0.1)">
       <use xlink:href="#DejaVuSans-48"/>
       <use x="63.623047" xlink:href="#DejaVuSans-46"/>
       <use x="95.410156" xlink:href="#DejaVuSans-50"/>
      </g>
     </g>
    </g>
    <g id="xtick_3">
     <g id="line2d_3">
      <g>
       <use style="stroke:#000000;stroke-width:0.8;" x="187.561775" xlink:href="#m0e3109cda4" y="307.584"/>
      </g>
     </g>
     <g id="text_3">
      <!-- 0.3 -->
      <defs>
       <path d="M 40.578125 39.3125 
Q 47.65625 37.796875 51.625 33 
Q 55.609375 28.21875 55.609375 21.1875 
Q 55.609375 10.40625 48.1875 4.484375 
Q 40.765625 -1.421875 27.09375 -1.421875 
Q 22.515625 -1.421875 17.65625 -0.515625 
Q 12.796875 0.390625 7.625 2.203125 
L 7.625 11.71875 
Q 11.71875 9.328125 16.59375 8.109375 
Q 21.484375 6.890625 26.8125 6.890625 
Q 36.078125 6.890625 40.9375 10.546875 
Q 45.796875 14.203125 45.796875 21.1875 
Q 45.796875 27.640625 41.28125 31.265625 
Q 36.765625 34.90625 28.71875 34.90625 
L 20.21875 34.90625 
L 20.21875 43.015625 
L 29.109375 43.015625 
Q 36.375 43.015625 40.234375 45.921875 
Q 44.09375 48.828125 44.09375 54.296875 
Q 44.09375 59.90625 40.109375 62.90625 
Q 36.140625 65.921875 28.71875 65.921875 
Q 24.65625 65.921875 20.015625 65.03125 
Q 15.375 64.15625 9.8125 62.3125 
L 9.8125 71.09375 
Q 15.4375 72.65625 20.34375 73.4375 
Q 25.25 74.21875 29.59375 74.21875 
Q 40.828125 74.21875 47.359375 69.109375 
Q 53.90625 64.015625 53.90625 55.328125 
Q 53.90625 49.265625 50.4375 45.09375 
Q 46.96875 40.921875 40.578125 39.3125 
z
" id="DejaVuSans-51"/>
      </defs>
      <g transform="translate(179.610213 322.182437)scale(0.1 -0.1)">
       <use xlink:href="#DejaVuSans-48"/>
       <use x="63.623047" xlink:href="#DejaVuSans-46"/>
       <use x="95.410156" xlink:href="#DejaVuSans-51"/>
      </g>
     </g>
    </g>
    <g id="xtick_4">
     <g id="line2d_4">
      <g>
       <use style="stroke:#000000;stroke-width:0.8;" x="252.470825" xlink:href="#m0e3109cda4" y="307.584"/>
      </g>
     </g>
     <g id="text_4">
      <!-- 0.4 -->
      <defs>
       <path d="M 37.796875 64.3125 
L 12.890625 25.390625 
L 37.796875 25.390625 
z
M 35.203125 72.90625 
L 47.609375 72.90625 
L 47.609375 25.390625 
L 58.015625 25.390625 
L 58.015625 17.1875 
L 47.609375 17.1875 
L 47.609375 0 
L 37.796875 0 
L 37.796875 17.1875 
L 4.890625 17.1875 
L 4.890625 26.703125 
z
" id="DejaVuSans-52"/>
      </defs>
      <g transform="translate(244.519263 322.182437)scale(0.1 -0.1)">
       <use xlink:href="#DejaVuSans-48"/>
       <use x="63.623047" xlink:href="#DejaVuSans-46"/>
       <use x="95.410156" xlink:href="#DejaVuSans-52"/>
      </g>
     </g>
    </g>
    <g id="xtick_5">
     <g id="line2d_5">
      <g>
       <use style="stroke:#000000;stroke-width:0.8;" x="317.379876" xlink:href="#m0e3109cda4" y="307.584"/>
      </g>
     </g>
     <g id="text_5">
      <!-- 0.5 -->
      <defs>
       <path d="M 10.796875 72.90625 
L 49.515625 72.90625 
L 49.515625 64.59375 
L 19.828125 64.59375 
L 19.828125 46.734375 
Q 21.96875 47.46875 24.109375 47.828125 
Q 26.265625 48.1875 28.421875 48.1875 
Q 40.625 48.1875 47.75 41.5 
Q 54.890625 34.8125 54.890625 23.390625 
Q 54.890625 11.625 47.5625 5.09375 
Q 40.234375 -1.421875 26.90625 -1.421875 
Q 22.3125 -1.421875 17.546875 -0.640625 
Q 12.796875 0.140625 7.71875 1.703125 
L 7.71875 11.625 
Q 12.109375 9.234375 16.796875 8.0625 
Q 21.484375 6.890625 26.703125 6.890625 
Q 35.15625 6.890625 40.078125 11.328125 
Q 45.015625 15.765625 45.015625 23.390625 
Q 45.015625 31 40.078125 35.4375 
Q 35.15625 39.890625 26.703125 39.890625 
Q 22.75 39.890625 18.8125 39.015625 
Q 14.890625 38.140625 10.796875 36.28125 
z
" id="DejaVuSans-53"/>
      </defs>
      <g transform="translate(309.428313 322.182437)scale(0.1 -0.1)">
       <use xlink:href="#DejaVuSans-48"/>
       <use x="63.623047" xlink:href="#DejaVuSans-46"/>
       <use x="95.410156" xlink:href="#DejaVuSans-53"/>
      </g>
     </g>
    </g>
    <g id="xtick_6">
     <g id="line2d_6">
      <g>
       <use style="stroke:#000000;stroke-width:0.8;" x="382.288926" xlink:href="#m0e3109cda4" y="307.584"/>
      </g>
     </g>
     <g id="text_6">
      <!-- 0.6 -->
      <defs>
       <path d="M 33.015625 40.375 
Q 26.375 40.375 22.484375 35.828125 
Q 18.609375 31.296875 18.609375 23.390625 
Q 18.609375 15.53125 22.484375 10.953125 
Q 26.375 6.390625 33.015625 6.390625 
Q 39.65625 6.390625 43.53125 10.953125 
Q 47.40625 15.53125 47.40625 23.390625 
Q 47.40625 31.296875 43.53125 35.828125 
Q 39.65625 40.375 33.015625 40.375 
z
M 52.59375 71.296875 
L 52.59375 62.3125 
Q 48.875 64.0625 45.09375 64.984375 
Q 41.3125 65.921875 37.59375 65.921875 
Q 27.828125 65.921875 22.671875 59.328125 
Q 17.53125 52.734375 16.796875 39.40625 
Q 19.671875 43.65625 24.015625 45.921875 
Q 28.375 48.1875 33.59375 48.1875 
Q 44.578125 48.1875 50.953125 41.515625 
Q 57.328125 34.859375 57.328125 23.390625 
Q 57.328125 12.15625 50.6875 5.359375 
Q 44.046875 -1.421875 33.015625 -1.421875 
Q 20.359375 -1.421875 13.671875 8.265625 
Q 6.984375 17.96875 6.984375 36.375 
Q 6.984375 53.65625 15.1875 63.9375 
Q 23.390625 74.21875 37.203125 74.21875 
Q 40.921875 74.21875 44.703125 73.484375 
Q 48.484375 72.75 52.59375 71.296875 
z
" id="DejaVuSans-54"/>
      </defs>
      <g transform="translate(374.337364 322.182437)scale(0.1 -0.1)">
       <use xlink:href="#DejaVuSans-48"/>
       <use x="63.623047" xlink:href="#DejaVuSans-46"/>
       <use x="95.410156" xlink:href="#DejaVuSans-54"/>
      </g>
     </g>
    </g>
    <g id="text_7">
     <!-- Theta -->
     <defs>
      <path d="M -0.296875 72.90625 
L 61.375 72.90625 
L 61.375 64.59375 
L 35.5 64.59375 
L 35.5 0 
L 25.59375 0 
L 25.59375 64.59375 
L -0.296875 64.59375 
z
" id="DejaVuSans-84"/>
      <path d="M 54.890625 33.015625 
L 54.890625 0 
L 45.90625 0 
L 45.90625 32.71875 
Q 45.90625 40.484375 42.875 44.328125 
Q 39.84375 48.1875 33.796875 48.1875 
Q 26.515625 48.1875 22.3125 43.546875 
Q 18.109375 38.921875 18.109375 30.90625 
L 18.109375 0 
L 9.078125 0 
L 9.078125 75.984375 
L 18.109375 75.984375 
L 18.109375 46.1875 
Q 21.34375 51.125 25.703125 53.5625 
Q 30.078125 56 35.796875 56 
Q 45.21875 56 50.046875 50.171875 
Q 54.890625 44.34375 54.890625 33.015625 
z
" id="DejaVuSans-104"/>
      <path d="M 56.203125 29.59375 
L 56.203125 25.203125 
L 14.890625 25.203125 
Q 15.484375 15.921875 20.484375 11.0625 
Q 25.484375 6.203125 34.421875 6.203125 
Q 39.59375 6.203125 44.453125 7.46875 
Q 49.3125 8.734375 54.109375 11.28125 
L 54.109375 2.78125 
Q 49.265625 0.734375 44.1875 -0.34375 
Q 39.109375 -1.421875 33.890625 -1.421875 
Q 20.796875 -1.421875 13.15625 6.1875 
Q 5.515625 13.8125 5.515625 26.8125 
Q 5.515625 40.234375 12.765625 48.109375 
Q 20.015625 56 32.328125 56 
Q 43.359375 56 49.78125 48.890625 
Q 56.203125 41.796875 56.203125 29.59375 
z
M 47.21875 32.234375 
Q 47.125 39.59375 43.09375 43.984375 
Q 39.0625 48.390625 32.421875 48.390625 
Q 24.90625 48.390625 20.390625 44.140625 
Q 15.875 39.890625 15.1875 32.171875 
z
" id="DejaVuSans-101"/>
      <path d="M 18.3125 70.21875 
L 18.3125 54.6875 
L 36.8125 54.6875 
L 36.8125 47.703125 
L 18.3125 47.703125 
L 18.3125 18.015625 
Q 18.3125 11.328125 20.140625 9.421875 
Q 21.96875 7.515625 27.59375 7.515625 
L 36.8125 7.515625 
L 36.8125 0 
L 27.59375 0 
Q 17.1875 0 13.234375 3.875 
Q 9.28125 7.765625 9.28125 18.015625 
L 9.28125 47.703125 
L 2.6875 47.703125 
L 2.6875 54.6875 
L 9.28125 54.6875 
L 9.28125 70.21875 
z
" id="DejaVuSans-116"/>
      <path d="M 34.28125 27.484375 
Q 23.390625 27.484375 19.1875 25 
Q 14.984375 22.515625 14.984375 16.5 
Q 14.984375 11.71875 18.140625 8.90625 
Q 21.296875 6.109375 26.703125 6.109375 
Q 34.1875 6.109375 38.703125 11.40625 
Q 43.21875 16.703125 43.21875 25.484375 
L 43.21875 27.484375 
z
M 52.203125 31.203125 
L 52.203125 0 
L 43.21875 0 
L 43.21875 8.296875 
Q 40.140625 3.328125 35.546875 0.953125 
Q 30.953125 -1.421875 24.3125 -1.421875 
Q 15.921875 -1.421875 10.953125 3.296875 
Q 6 8.015625 6 15.921875 
Q 6 25.140625 12.171875 29.828125 
Q 18.359375 34.515625 30.609375 34.515625 
L 43.21875 34.515625 
L 43.21875 35.40625 
Q 43.21875 41.609375 39.140625 45 
Q 35.0625 48.390625 27.6875 48.390625 
Q 23 48.390625 18.546875 47.265625 
Q 14.109375 46.140625 10.015625 43.890625 
L 10.015625 52.203125 
Q 14.9375 54.109375 19.578125 55.046875 
Q 24.21875 56 28.609375 56 
Q 40.484375 56 46.34375 49.84375 
Q 52.203125 43.703125 52.203125 31.203125 
z
" id="DejaVuSans-97"/>
     </defs>
     <g transform="translate(221.836562 335.860562)scale(0.1 -0.1)">
      <use xlink:href="#DejaVuSans-84"/>
      <use x="61.083984" xlink:href="#DejaVuSans-104"/>
      <use x="124.462891" xlink:href="#DejaVuSans-101"/>
      <use x="185.986328" xlink:href="#DejaVuSans-116"/>
      <use x="225.195312" xlink:href="#DejaVuSans-97"/>
     </g>
    </g>
   </g>
   <g id="matplotlib.axis_2">
    <g id="ytick_1">
     <g id="line2d_7">
      <defs>
       <path d="M 0 0 
L -3.5 0 
" id="m2e955c8b59" style="stroke:#000000;stroke-width:0.8;"/>
      </defs>
      <g>
       <use style="stroke:#000000;stroke-width:0.8;" x="57.6" xlink:href="#m2e955c8b59" y="298.46295"/>
      </g>
     </g>
     <g id="text_8">
      <!-- 0 -->
      <g transform="translate(44.2375 302.262168)scale(0.1 -0.1)">
       <use xlink:href="#DejaVuSans-48"/>
      </g>
     </g>
    </g>
    <g id="ytick_2">
     <g id="line2d_8">
      <g>
       <use style="stroke:#000000;stroke-width:0.8;" x="57.6" xlink:href="#m2e955c8b59" y="252.360095"/>
      </g>
     </g>
     <g id="text_9">
      <!-- 10 -->
      <g transform="translate(37.875 256.159314)scale(0.1 -0.1)">
       <use xlink:href="#DejaVuSans-49"/>
       <use x="63.623047" xlink:href="#DejaVuSans-48"/>
      </g>
     </g>
    </g>
    <g id="ytick_3">
     <g id="line2d_9">
      <g>
       <use style="stroke:#000000;stroke-width:0.8;" x="57.6" xlink:href="#m2e955c8b59" y="206.257241"/>
      </g>
     </g>
     <g id="text_10">
      <!-- 20 -->
      <g transform="translate(37.875 210.056459)scale(0.1 -0.1)">
       <use xlink:href="#DejaVuSans-50"/>
       <use x="63.623047" xlink:href="#DejaVuSans-48"/>
      </g>
     </g>
    </g>
    <g id="ytick_4">
     <g id="line2d_10">
      <g>
       <use style="stroke:#000000;stroke-width:0.8;" x="57.6" xlink:href="#m2e955c8b59" y="160.154386"/>
      </g>
     </g>
     <g id="text_11">
      <!-- 30 -->
      <g transform="translate(37.875 163.953605)scale(0.1 -0.1)">
       <use xlink:href="#DejaVuSans-51"/>
       <use x="63.623047" xlink:href="#DejaVuSans-48"/>
      </g>
     </g>
    </g>
    <g id="ytick_5">
     <g id="line2d_11">
      <g>
       <use style="stroke:#000000;stroke-width:0.8;" x="57.6" xlink:href="#m2e955c8b59" y="114.051532"/>
      </g>
     </g>
     <g id="text_12">
      <!-- 40 -->
      <g transform="translate(37.875 117.85075)scale(0.1 -0.1)">
       <use xlink:href="#DejaVuSans-52"/>
       <use x="63.623047" xlink:href="#DejaVuSans-48"/>
      </g>
     </g>
    </g>
    <g id="ytick_6">
     <g id="line2d_12">
      <g>
       <use style="stroke:#000000;stroke-width:0.8;" x="57.6" xlink:href="#m2e955c8b59" y="67.948677"/>
      </g>
     </g>
     <g id="text_13">
      <!-- 50 -->
      <g transform="translate(37.875 71.747896)scale(0.1 -0.1)">
       <use xlink:href="#DejaVuSans-53"/>
       <use x="63.623047" xlink:href="#DejaVuSans-48"/>
      </g>
     </g>
    </g>
    <g id="text_14">
     <!-- Time -->
     <defs>
      <path d="M 9.421875 54.6875 
L 18.40625 54.6875 
L 18.40625 0 
L 9.421875 0 
z
M 9.421875 75.984375 
L 18.40625 75.984375 
L 18.40625 64.59375 
L 9.421875 64.59375 
z
" id="DejaVuSans-105"/>
      <path d="M 52 44.1875 
Q 55.375 50.25 60.0625 53.125 
Q 64.75 56 71.09375 56 
Q 79.640625 56 84.28125 50.015625 
Q 88.921875 44.046875 88.921875 33.015625 
L 88.921875 0 
L 79.890625 0 
L 79.890625 32.71875 
Q 79.890625 40.578125 77.09375 44.375 
Q 74.3125 48.1875 68.609375 48.1875 
Q 61.625 48.1875 57.5625 43.546875 
Q 53.515625 38.921875 53.515625 30.90625 
L 53.515625 0 
L 44.484375 0 
L 44.484375 32.71875 
Q 44.484375 40.625 41.703125 44.40625 
Q 38.921875 48.1875 33.109375 48.1875 
Q 26.21875 48.1875 22.15625 43.53125 
Q 18.109375 38.875 18.109375 30.90625 
L 18.109375 0 
L 9.078125 0 
L 9.078125 54.6875 
L 18.109375 54.6875 
L 18.109375 46.1875 
Q 21.1875 51.21875 25.484375 53.609375 
Q 29.78125 56 35.6875 56 
Q 41.65625 56 45.828125 52.96875 
Q 50 49.953125 52 44.1875 
z
" id="DejaVuSans-109"/>
     </defs>
     <g transform="translate(31.795313 186.761594)rotate(-90)scale(0.1 -0.1)">
      <use xlink:href="#DejaVuSans-84"/>
      <use x="57.958984" xlink:href="#DejaVuSans-105"/>
      <use x="85.742188" xlink:href="#DejaVuSans-109"/>
      <use x="183.154297" xlink:href="#DejaVuSans-101"/>
     </g>
    </g>
   </g>
   <g id="line2d_13">
    <path clip-path="url(#p24cffffb1f)" d="M 217.18156 295.488 
L 236.434228 294.449012 
L 237.094605 294.223712 
L 257.883256 293.938632 
L 257.883256 293.763696 
L 204.686616 293.630249 
L 231.584272 293.284804 
L 231.584272 293.050503 
L 195.938382 292.618271 
L 195.938382 292.413633 
L 198.185113 292.266492 
L 198.185113 292.128536 
L 246.533942 291.875445 
L 246.533942 291.645546 
L 229.154562 291.507576 
L 254.834801 291.143557 
L 254.834801 290.918317 
L 209.158176 290.716173 
L 209.158176 290.582825 
L 231.584272 290.343735 
L 231.584272 290.210063 
L 251.12603 289.888296 
L 251.12603 289.713625 
L 245.657928 289.456307 
L 245.657928 289.276837 
L 232.246374 289.023588 
L 232.246374 288.894708 
L 237.754745 288.57417 
L 237.754745 288.440565 
L 232.246374 288.131829 
L 232.246374 287.975494 
L 208.711472 287.676627 
L 208.711472 287.529487 
L 231.14274 287.175441 
L 231.14274 287.051301 
L 230.921936 286.595984 
L 232.908241 286.213818 
L 232.908241 286.080471 
L 234.010831 285.69885 
L 234.010831 285.560761 
L 207.817762 285.188441 
L 207.817762 285.050479 
L 232.246374 284.649853 
L 232.246374 284.461352 
L 211.167097 284.22684 
L 211.167097 284.088902 
L 232.908241 283.69347 
L 232.908241 283.468181 
L 243.2467 283.178487 
L 243.2467 282.985323 
L 232.246374 282.658664 
L 232.246374 281.996582 
L 234.672072 281.720701 
L 234.672072 281.564314 
L 215.401427 281.201131 
L 215.401427 281.067788 
L 219.404431 272.375956 
L 233.349355 272.205841 
L 233.349355 272.042523 
L 234.672072 271.687622 
L 234.672072 271.572323 
L 227.827941 271.163094 
L 227.827941 271.027414 
L 216.514201 270.656472 
L 216.514201 270.532328 
L 248.940788 269.695923 
L 248.940788 269.594774 
L 229.596561 269.070577 
L 232.246374 268.662512 
L 232.246374 268.524567 
L 228.491368 268.146133 
L 228.491368 268.031189 
L 235.773616 267.601614 
L 398.487273 266.567519 
L 202.671147 266.052554 
L 228.933523 265.606569 
L 234.451684 265.195765 
L 234.451684 265.06729 
L 227.606747 264.575298 
L 238.414649 264.053137 
L 234.451684 263.535025 
L 232.025699 263.095902 
L 234.672072 262.582723 
L 199.531965 262.172463 
L 199.531965 262.057521 
L 217.18156 261.654689 
L 217.18156 261.539582 
L 243.027339 261.135781 
L 243.027339 261.006879 
L 273.908269 260.589899 
L 228.491368 260.15893 
L 228.491368 259.995794 
L 200.877925 259.556821 
L 229.596561 259.035264 
L 220.95892 258.630285 
L 220.95892 258.505989 
L 226.057663 258.081653 
L 296.175038 257.157618 
L 296.175038 257.028872 
L 239.074316 256.536881 
L 250.470737 256.193935 
L 250.470737 256.02841 
L 242.588536 255.679475 
L 242.588536 255.564686 
L 229.596561 255.164666 
L 229.596561 255.045105 
L 230.259365 254.618977 
L 217.84869 254.094938 
L 243.904626 253.32178 
L 243.904626 253.215867 
L 232.246374 252.773122 
L 227.827941 252.248662 
L 231.363519 251.475917 
L 231.363519 251.370159 
L 247.847166 250.925308 
L 232.246374 250.413869 
L 228.049109 249.969749 
L 230.480248 249.527196 
L 241.930135 249.111015 
L 241.930135 248.98229 
L 204.910432 248.561438 
L 232.246374 248.123651 
L 258.753274 247.683049 
L 230.921936 247.273027 
L 230.921936 247.15808 
L 242.149628 246.827025 
L 242.149628 246.707488 
L 222.0685 246.363914 
L 222.0685 246.216815 
L 242.149628 245.838098 
L 238.194707 245.426835 
L 238.194707 245.311886 
L 230.480248 244.879678 
L 210.497684 244.436075 
L 217.403962 243.992986 
L 232.246374 243.472173 
L 230.259365 243.038324 
L 220.292864 242.590543 
L 230.259365 242.181042 
L 230.259365 242.061273 
L 240.173235 241.716615 
L 240.173235 241.564856 
L 232.467022 241.191089 
L 281.006216 240.83562 
L 281.006216 240.670427 
L 243.2467 240.31597 
L 243.2467 240.141135 
L 260.274765 239.787231 
L 235.112795 239.442383 
L 235.112795 239.304439 
L 211.613247 238.904423 
L 229.817522 238.390341 
L 206.70006 237.87451 
L 265.264607 236.941994 
L 265.264607 236.827048 
L 181.275012 236.392281 
L 219.182259 235.87747 
L 235.773616 235.354806 
L 236.434228 234.846601 
L 242.588536 234.405192 
L 270.887966 233.98828 
L 270.887966 233.841147 
L 178.783411 233.477908 
L 178.783411 233.349168 
L 73.832727 232.958331 
L 73.832727 232.829597 
L 253.962846 232.415776 
L 298.512508 232.05691 
L 298.512508 231.781247 
L 267.645972 231.532956 
L 267.645972 231.298453 
L 301.482535 231.118002 
L 301.482535 231.00306 
L 245.876972 229.711406 
L 245.876972 229.573316 
L 267.862296 229.164066 
L 228.270252 228.726073 
L 237.094605 228.283339 
L 242.807951 227.762931 
L 235.112768 227.32108 
L 235.112768 226.879337 
L 336.89366 226.467638 
L 336.89366 226.338891 
L 278.428621 225.92292 
L 243.027339 225.566357 
L 243.027339 225.414489 
L 240.173235 225.03452 
L 237.094605 224.621265 
L 237.094605 224.50189 
L 229.817522 224.074116 
L 226.721712 223.74023 
L 226.721712 223.625288 
L 219.848699 223.27631 
L 219.848699 223.106223 
L 238.854453 222.674002 
L 221.624745 221.779079 
L 266.996836 220.916812 
L 266.996836 220.760709 
L 227.385527 220.318532 
L 238.414649 219.874619 
L 219.182259 219.356523 
L 168.560535 218.842348 
L 272.614512 218.428534 
L 272.614512 218.295196 
L 243.904626 217.968268 
L 243.904626 217.710813 
L 174.200416 217.363342 
L 167.193879 216.950859 
L 167.193879 216.776125 
L 250.033742 216.332634 
L 279.932702 215.81567 
L 249.596641 214.858687 
L 245.657928 214.443566 
L 245.657928 214.328613 
L 216.73668 213.901081 
L 214.733457 213.484403 
L 214.733457 213.360259 
L 238.854453 212.935586 
L 245.657928 212.49216 
L 243.466035 212.057814 
L 245.876972 211.538019 
L 242.588536 211.095254 
L 217.84869 210.650588 
L 258.53581 210.212434 
L 254.398877 209.689408 
L 255.488486 209.353763 
L 255.488486 209.211208 
L 249.37805 208.916943 
L 249.37805 208.792803 
L 243.904626 208.470937 
L 243.904626 208.342198 
L 209.158176 207.858577 
L 209.158176 207.591751 
L 283.579824 207.366606 
L 283.579824 207.251659 
L 237.094605 206.840253 
L 237.094605 206.568995 
L 270.024035 206.257673 
L 270.024035 206.138116 
L 232.687645 205.741931 
L 232.687645 205.626819 
L 235.773616 205.221923 
L 235.773616 205.106807 
L 241.491068 204.709884 
L 241.491068 204.594749 
L 232.246374 204.089741 
L 249.596641 203.571931 
L 226.057663 203.159769 
L 226.057663 203.044816 
L 221.624745 202.642809 
L 221.624745 202.52786 
L 214.288017 202.05247 
L 214.288017 201.937514 
L 230.480248 201.425815 
L 230.921936 200.903798 
L 228.491368 200.400717 
L 230.259365 199.87617 
L 235.993846 199.365879 
L 239.074316 198.925277 
L 229.596561 198.515142 
L 229.596561 198.395432 
L 232.246374 197.894001 
L 251.781081 197.376578 
L 234.010831 196.96177 
L 234.010831 196.846825 
L 216.069168 196.000928 
L 216.069168 195.858388 
L 232.246374 195.383355 
L 216.73668 194.96815 
L 216.73668 194.82562 
L 227.827941 194.426735 
L 230.921936 194.010359 
L 230.921936 193.885253 
L 232.246374 193.388828 
L 267.645972 192.980837 
L 267.645972 192.852085 
L 241.051896 192.430001 
L 288.287713 191.991243 
L 230.259365 191.480429 
L 217.84869 191.140183 
L 217.84869 191.022268 
L 248.940788 190.591636 
L 207.817762 190.072107 
L 203.343194 189.559264 
L 259.188121 189.143778 
L 259.188121 189.010442 
L 237.094605 188.6808 
L 237.094605 188.533541 
L 234.892433 188.083216 
L 222.73394 187.668108 
L 222.73394 187.553145 
L 221.180887 187.072602 
L 221.180887 186.925471 
L 230.921936 186.452936 
L 236.434228 186.047653 
L 236.434228 185.930196 
L 240.173235 185.449925 
L 240.173235 185.288989 
L 228.491368 185.017701 
L 228.491368 184.888962 
L 240.173235 184.498139 
L 240.173235 184.364802 
L 228.491368 183.964763 
L 228.491368 183.739475 
L 229.596561 183.445196 
L 229.596561 183.201339 
L 243.2467 183.026787 
L 243.2467 182.907083 
L 229.596561 182.562381 
L 229.596561 182.304741 
L 222.955701 182.06458 
L 222.955701 181.949472 
L 244.343111 181.617747 
L 244.343111 181.502639 
L 214.733457 181.073807 
L 219.848699 180.630684 
L 240.612618 179.77843 
L 240.612618 179.672686 
L 235.333077 179.231277 
L 235.993846 178.787152 
L 198.40965 177.826455 
L 206.70006 177.38475 
L 235.773616 176.869455 
L 209.158176 176.455342 
L 209.158176 176.317228 
L 230.259365 175.937528 
L 230.259365 175.804031 
L 230.480248 175.396532 
L 222.290339 174.975182 
L 222.290339 174.846417 
L 229.596561 174.360119 
L 224.72887 174.020634 
L 224.72887 173.908594 
L 227.164281 173.472723 
L 202.671147 173.063711 
L 202.671147 172.950991 
L 232.908241 172.522152 
L 232.246374 172.073763 
L 206.029137 171.556825 
L 241.271495 171.111877 
L 182.889743 170.672964 
L 260.492013 170.22663 
L 227.827941 169.815007 
L 227.827941 169.695454 
L 237.534725 169.273096 
L 204.015017 168.757448 
L 228.491368 168.23858 
L 199.756354 167.8269 
L 199.756354 167.707202 
L 233.349355 167.306644 
L 233.349355 167.16871 
L 196.61266 166.762756 
L 230.921936 166.346798 
L 230.921936 166.213471 
L 229.596561 165.72775 
L 229.596561 165.290051 
L 206.476444 164.847651 
L 205.357989 164.430912 
L 205.357989 164.292808 
L 242.369096 163.878112 
L 245.657928 163.547798 
L 245.657928 163.432998 
L 235.333077 162.929297 
L 262.22902 162.482682 
L 247.628362 162.039934 
L 222.955701 161.593924 
L 245.657928 161.187081 
L 245.657928 161.039949 
L 243.2467 160.745667 
L 243.2467 160.6077 
L 212.951088 160.302273 
L 212.951088 160.168928 
L 219.626578 159.860831 
L 219.626578 159.745912 
L 257.448086 159.327123 
L 257.448086 159.064997 
L 256.141928 158.904074 
L 256.141928 158.784508 
L 245.876972 158.435069 
L 245.876972 158.200575 
L 234.451684 157.993661 
L 234.451684 157.768374 
L 208.488083 157.478668 
L 208.488083 157.2166 
L 224.9504 157.05568 
L 224.9504 156.940724 
L 233.569873 156.591251 
L 233.569873 156.347597 
L 230.921936 156.080517 
L 230.921936 155.841474 
L 243.466035 155.634515 
L 243.466035 155.395469 
L 226.500388 155.21155 
L 226.500388 155.096596 
L 230.259365 154.770147 
L 230.259365 154.655043 
L 240.612618 154.253753 
L 240.612618 154.1296 
L 234.010831 153.807361 
L 234.010831 153.678636 
L 233.790365 153.264818 
L 232.246374 152.817616 
L 233.349355 152.302632 
L 226.057663 151.969354 
L 226.057663 151.854279 
L 234.010831 151.419218 
L 234.451684 150.973477 
L 234.231271 150.460968 
L 230.921936 150.015496 
L 233.569873 149.568721 
L 247.628362 149.057884 
L 246.97179 148.619145 
L 276.277587 148.172457 
L 241.491068 147.728966 
L 229.154562 147.208792 
L 238.414649 146.774086 
L 231.584272 146.328251 
L 242.588536 145.994235 
L 242.588536 145.879106 
L 245.876972 145.371809 
L 238.414649 145.033082 
L 238.414649 144.908923 
L 212.059295 144.481621 
L 240.612618 144.04159 
L 238.414649 143.526777 
L 236.874506 143.191472 
L 225.393383 140.058172 
L 248.722117 139.615704 
L 205.357989 139.09119 
L 209.158176 138.58878 
L 232.246374 138.142892 
L 239.074316 137.62095 
L 227.164281 137.217312 
L 227.164281 137.1022 
L 246.75288 136.693143 
L 246.75288 136.541412 
L 246.97179 136.077016 
L 245.876972 135.814929 
L 245.876972 135.653999 
L 204.238908 134.731654 
L 240.612618 133.890181 
L 242.588536 133.441384 
L 242.588536 133.287794 
L 233.790365 132.979686 
L 233.790365 132.7362 
L 219.626578 132.570684 
L 219.626578 132.451129 
L 224.9504 132.127823 
L 224.9504 132.003675 
L 219.626578 131.582696 
L 219.626578 131.394207 
L 243.2467 131.052288 
L 239.513963 130.701028 
L 239.513963 130.530917 
L 244.562313 130.259387 
L 244.562313 130.093719 
L 220.514908 129.762825 
L 220.514908 129.647881 
L 235.333077 129.215709 
L 246.314979 128.882173 
L 246.314979 128.767219 
L 239.074316 128.364867 
L 239.074316 128.249915 
L 238.854453 127.807997 
L 240.173235 127.366104 
L 234.892433 126.931048 
L 229.817522 126.420389 
L 246.75288 125.968801 
L 230.921936 125.633841 
L 230.921936 125.518889 
L 236.434228 125.08669 
L 235.773616 124.571051 
L 208.934837 124.126591 
L 281.220836 123.681544 
L 237.094605 123.24318 
L 243.466035 122.71641 
L 260.274765 122.282241 
L 217.18156 121.31863 
L 229.154562 120.883529 
L 229.817522 120.34758 
L 230.259365 119.840281 
L 245.657928 119.330802 
L 219.848699 118.889393 
L 238.194707 118.40085 
L 238.194707 118.262915 
L 230.480248 117.782096 
L 209.828044 117.372501 
L 209.828044 117.257546 
L 244.343111 116.776731 
L 244.343111 116.643387 
L 238.414649 116.266152 
L 238.414649 116.141999 
L 232.687645 115.640821 
L 194.58916 115.052276 
L 199.531965 114.64218 
L 199.531965 114.527076 
L 234.892433 114.122596 
L 234.892433 113.989182 
L 236.434228 113.607597 
L 236.434228 113.487922 
L 235.112768 112.986729 
L 223.842492 112.476657 
L 245.657928 112.136557 
L 245.657928 112.003221 
L 244.343111 111.621587 
L 244.343111 111.488246 
L 246.314979 111.083326 
L 246.314979 110.849118 
L 250.033742 110.563814 
L 250.033742 110.306566 
L 234.672072 109.962065 
L 263.530638 108.96821 
L 253.090462 108.586343 
L 253.090462 108.383886 
L 237.094605 108.056344 
L 237.094605 107.84024 
L 235.773616 107.531355 
L 210.943985 107.098336 
L 210.943985 106.928251 
L 222.290339 106.582065 
L 222.290339 106.393568 
L 250.689195 105.981108 
L 308.883333 105.466752 
L 251.781081 105.018494 
L 245.657928 104.606099 
L 245.657928 104.472948 
L 224.064125 103.622502 
L 246.533942 103.173814 
L 245.876972 102.65899 
L 244.562313 102.219865 
L 245.657928 101.776823 
L 239.074316 101.256428 
L 181.048622 100.816724 
L 250.907626 100.375308 
L 207.817762 99.933901 
L 246.97179 99.519026 
L 246.97179 99.394551 
L 239.513963 98.973792 
L 232.246374 98.635414 
L 232.246374 98.520148 
L 213.396832 97.563571 
L 245.657928 97.131198 
L 241.930135 96.714408 
L 241.930135 96.571869 
L 232.908241 96.094191 
L 232.908241 95.643372 
L 219.182259 95.144497 
L 240.612618 94.627669 
L 238.854453 94.109289 
L 210.497684 93.663277 
L 224.72887 93.142438 
L 200.205057 92.734031 
L 200.205057 92.618935 
L 299.149408 92.114921 
L 222.290339 91.155175 
L 241.271495 90.638158 
L 239.513963 90.119532 
L 260.492013 89.711045 
L 260.492013 89.596092 
L 231.584272 89.09379 
L 222.290339 88.653235 
L 235.333077 88.233897 
L 235.333077 88.118945 
L 217.626339 87.71892 
L 217.626339 87.590178 
L 211.613247 87.200955 
L 211.613247 87.072212 
L 245.000639 86.745136 
L 245.000639 86.478475 
L 236.434228 86.225578 
L 236.434228 85.935914 
L 235.773616 85.715204 
L 235.773616 85.47036 
L 240.83227 85.187461 
L 240.83227 84.98057 
L 235.112768 84.676028 
L 235.112768 84.427748 
L 242.149628 84.24382 
L 242.149628 84.071323 
L 190.761567 83.714773 
L 190.761567 83.466359 
L 260.492013 83.107872 
L 236.434228 82.689323 
L 236.434228 81.998218 
L 219.848699 81.632479 
L 200.877925 81.117966 
L 242.588536 80.706584 
L 242.588536 80.573248 
L 241.930135 80.190469 
L 241.930135 80.047766 
L 229.154562 79.649233 
L 248.284695 79.233526 
L 248.284695 79.081624 
L 249.37805 78.613856 
L 239.513963 77.689382 
L 239.513963 77.583634 
L 251.344407 77.135891 
L 192.563669 76.616871 
L 222.73394 76.109719 
L 231.584272 75.675032 
L 231.584272 75.518738 
L 206.92365 75.079937 
L 237.314678 74.626478 
L 249.37805 74.218368 
L 249.37805 74.071057 
L 232.246374 73.67335 
L 246.533942 73.262385 
L 246.533942 73.142838 
L 242.588536 72.713135 
L 246.533942 72.264139 
L 225.393383 71.830131 
L 255.488486 70.681041 
L 246.97179 70.147666 
L 239.953504 69.926806 
L 234.010831 69.563659 
L 234.010831 69.407334 
L 234.672072 69.007379 
L 243.904626 68.690112 
L 243.904626 68.57516 
L 221.402829 67.62548 
L 243.2467 67.289828 
L 243.2467 67.170097 
L 246.314979 66.844462 
L 246.314979 66.729283 
L 243.904626 66.330417 
L 243.904626 66.210864 
L 240.83227 65.780871 
L 241.271495 65.341207 
L 232.908241 64.895941 
L 239.513963 64.478918 
L 239.513963 64.331626 
L 254.834801 63.931574 
L 225.836262 63.582138 
L 225.836262 63.439584 
L 227.827941 63.083198 
L 227.827941 62.940663 
L 238.854453 62.536032 
L 239.513963 61.296133 
L 231.14274 60.521682 
L 244.562313 60.236055 
L 246.75288 59.881512 
L 246.75288 59.628645 
L 234.231271 59.375742 
L 234.231271 59.132088 
L 248.284695 58.952758 
L 248.284695 58.837772 
L 245.000639 58.488355 
L 245.000639 58.235459 
L 234.672072 58.046916 
L 234.672072 57.830842 
L 229.154562 57.531948 
L 229.154562 57.269891 
L 262.663001 56.925055 
L 251.781081 56.570215 
L 251.781081 56.358708 
L 236.434228 56.049843 
L 236.434228 55.870526 
L 217.84869 55.543294 
L 217.84869 55.35242 
L 216.069168 55.035158 
L 216.069168 54.901811 
L 234.892433 54.575155 
L 234.892433 54.419023 
L 225.393383 53.978903 
L 203.343194 53.568 
L 203.343194 53.568 
" style="fill:none;stroke:#1f77b4;stroke-linecap:square;stroke-width:1.5;"/>
   </g>
   <g id="patch_3">
    <path d="M 57.6 307.584 
L 57.6 41.472 
" style="fill:none;stroke:#000000;stroke-linecap:square;stroke-linejoin:miter;stroke-width:0.8;"/>
   </g>
   <g id="patch_4">
    <path d="M 414.72 307.584 
L 414.72 41.472 
" style="fill:none;stroke:#000000;stroke-linecap:square;stroke-linejoin:miter;stroke-width:0.8;"/>
   </g>
   <g id="patch_5">
    <path d="M 57.6 307.584 
L 414.72 307.584 
" style="fill:none;stroke:#000000;stroke-linecap:square;stroke-linejoin:miter;stroke-width:0.8;"/>
   </g>
   <g id="patch_6">
    <path d="M 57.6 41.472 
L 414.72 41.472 
" style="fill:none;stroke:#000000;stroke-linecap:square;stroke-linejoin:miter;stroke-width:0.8;"/>
   </g>
  </g>
 </g>
 <defs>
  <clipPath id="p24cffffb1f">
   <rect height="266.112" width="357.12" x="57.6" y="41.472"/>
  </clipPath>
 </defs>
</svg>
